<?xml version="1.0" encoding="UTF-8"?><svg id="Layer_1" xmlns="http://www.w3.org/2000/svg" viewBox="0 0 610.8 99.06"><defs><style>.cls-1{fill:#fff;}</style></defs><g><path class="cls-1" d="M181.72,.24h20.12l33.49,46.26c5.41,7.36,11.56,17.87,11.56,17.87V.24h21.03V97.56h-20.28l-32.44-44.46c-6.46-8.71-12.47-19.07-12.47-19.07v63.53h-21.03V.24Z"/><path class="cls-1" d="M285.95,60.01c0-21.78,17.72-39.05,40.1-39.05s40.25,17.27,40.25,39.05-17.72,39.05-40.25,39.05-40.1-17.27-40.1-39.05Zm59.78,0c0-11.71-8.41-20.43-19.68-20.43s-19.67,8.71-19.67,20.43,8.41,20.43,19.67,20.43,19.68-8.56,19.68-20.43Z"/><path class="cls-1" d="M373.51,22.47h20.12l13.97,38.6c2.85,7.81,5.26,15.62,5.56,16.67,.15-1.05,2.7-9.16,5.41-16.52l13.97-38.75h19.97l-29.59,75.24h-19.82l-29.59-75.24Z"/><path class="cls-1" d="M459.72,60.01c0-21.63,16.82-39.05,38.9-39.05,20.43,0,36.5,17.42,36.5,38.75,0,3.6-.45,7.21-.45,7.21h-54.52c2.4,10.36,10.96,15.32,20.88,15.32,7.21,0,14.72-2.1,20.28-5.86l7.51,14.42c-8.41,5.56-18.17,8.26-27.94,8.26-21.93,0-41.15-14.27-41.15-39.05Zm56.47-6.46c-1.5-9.46-9.01-15.77-18.17-15.77s-16.22,6.31-18.17,15.77h36.35Z"/><path class="cls-1" d="M547.43,88.85l7.21-15.47c5.11,3.91,12.17,7.96,23.43,7.96,4.65,0,12.31-1.8,12.31-6.31s-6.46-5.56-12.92-7.36c-14.87-3.91-27.03-8.86-27.03-23.28,0-15.32,15.02-23.43,29.14-23.43,12.31,0,20.12,3,27.94,7.51l-6.76,15.02c-7.36-3.6-14.27-5.26-20.88-5.26-4.65,0-9.01,2.1-9.01,5.26,0,4.21,6.31,5.56,13.22,7.06,12.77,3,26.73,8.56,26.73,23.88,0,18.47-18.77,24.63-32.74,24.63-16.07,0-26.43-6.31-30.64-10.21Z"/></g><g><g><path class="cls-1" d="M134.15,73.66v23.9h-14.66c-15.7,0-31.18-3.74-45.15-10.92l-29.19-15C31.18,64.47,15.7,60.72,0,60.72h0v-23.89H5.78c15.7,0,31.17,3.74,45.13,10.91l29.21,15c13.96,7.17,29.44,10.91,45.13,10.91h8.89Z"/><path class="cls-1" d="M0,73.72v23.84H37.41v-15.21C25.79,76.72,12.91,73.72,0,73.72h0Z"/></g><g><path class="cls-1" d="M134.15,36.83v23.89h-5.8c-15.7,0-31.17-3.74-45.14-10.92l-29.2-15c-13.96-7.17-29.44-10.92-45.14-10.92H0V0H14.65C30.35,0,45.82,3.74,59.78,10.91l29.22,15.01c13.96,7.17,29.43,10.91,45.13,10.91h.01Z"/><path class="cls-1" d="M134.15,23.82V0h-37.41V15.2c11.62,5.62,24.49,8.62,37.4,8.62h.01Z"/></g></g></svg>