<?xml version="1.0" encoding="UTF-8"?><svg id="Layer_1" xmlns="http://www.w3.org/2000/svg" viewBox="0 0 134.15 97.56"><g><path d="M134.15,73.66v23.9h-14.66c-15.7,0-31.18-3.74-45.15-10.92l-29.19-15C31.18,64.47,15.7,60.72,0,60.72h0v-23.89H5.78c15.7,0,31.17,3.74,45.13,10.91l29.21,15c13.96,7.17,29.44,10.91,45.13,10.91h8.89Z"/><path d="M0,73.72v23.84H37.41v-15.21C25.79,76.72,12.91,73.72,0,73.72h0Z"/></g><g><path d="M134.15,36.83v23.89h-5.8c-15.7,0-31.17-3.74-45.14-10.92l-29.2-15c-13.96-7.17-29.44-10.92-45.14-10.92H0V0H14.65C30.35,0,45.82,3.74,59.78,10.91l29.22,15.01c13.96,7.17,29.43,10.91,45.13,10.91h.01Z"/><path d="M134.15,23.82V0h-37.41V15.2c11.62,5.62,24.49,8.62,37.4,8.62h.01Z"/></g></svg>