<?xml version="1.0" encoding="UTF-8"?><svg id="Layer_1" xmlns="http://www.w3.org/2000/svg" xmlns:xlink="http://www.w3.org/1999/xlink" viewBox="0 0 134.15 97.56"><defs><style>.cls-1{fill:url(#linear-gradient);}.cls-2{fill:url(#linear-gradient-3);}.cls-3{fill:url(#linear-gradient-4);}.cls-4{fill:url(#linear-gradient-2);}</style><linearGradient id="linear-gradient" x1="167.3" y1="1.23" x2="40.02" y2="85" gradientUnits="userSpaceOnUse"><stop offset="0" stop-color="#3cf"/><stop offset="1" stop-color="#93c"/></linearGradient><linearGradient id="linear-gradient-2" x1="161.15" y1="-8.12" x2="33.88" y2="75.66" xlink:href="#linear-gradient"/><linearGradient id="linear-gradient-3" x1="150.38" y1="-24.47" x2="23.11" y2="59.3" xlink:href="#linear-gradient"/><linearGradient id="linear-gradient-4" x1="156.53" y1="-15.13" x2="29.26" y2="68.64" xlink:href="#linear-gradient"/></defs><g><path class="cls-1" d="M134.15,73.66v23.9h-14.66c-15.7,0-31.18-3.74-45.15-10.92l-29.19-15C31.18,64.47,15.7,60.72,0,60.72h0v-23.89H5.78c15.7,0,31.17,3.74,45.13,10.91l29.21,15c13.96,7.17,29.44,10.91,45.13,10.91h8.89Z"/><path class="cls-4" d="M0,73.72v23.84H37.41v-15.21C25.79,76.72,12.91,73.72,0,73.72h0Z"/></g><g><path class="cls-2" d="M134.15,36.83v23.89h-5.8c-15.7,0-31.17-3.74-45.14-10.92l-29.2-15c-13.96-7.17-29.44-10.92-45.14-10.92H0V0H14.65C30.35,0,45.82,3.74,59.78,10.91l29.22,15.01c13.96,7.17,29.43,10.91,45.13,10.91h.01Z"/><path class="cls-3" d="M134.15,23.82V0h-37.41V15.2c11.62,5.62,24.49,8.62,37.4,8.62h.01Z"/></g></svg>